<svg xmlns="http://www.w3.org/2000/svg" xmlns:xlink="http://www.w3.org/1999/xlink" width="1080" zoomAndPan="magnify" viewBox="0 0 810 809.999993" height="1080" preserveAspectRatio="xMidYMid meet" version="1.0"><defs><g/><clipPath id="9cc35ff02a"><path d="M 154.394531 178.445312 L 655.605469 178.445312 L 655.605469 679.65625 L 154.394531 679.65625 Z M 154.394531 178.445312 " clip-rule="nonzero"/></clipPath><clipPath id="432d38bf91"><path d="M 405 178.445312 C 266.59375 178.445312 154.394531 290.644531 154.394531 429.050781 C 154.394531 567.457031 266.59375 679.65625 405 679.65625 C 543.40625 679.65625 655.605469 567.457031 655.605469 429.050781 C 655.605469 290.644531 543.40625 178.445312 405 178.445312 Z M 405 178.445312 " clip-rule="nonzero"/></clipPath></defs><g clip-path="url(#9cc35ff02a)"><g clip-path="url(#432d38bf91)"><path fill="#005593" d="M 154.394531 178.445312 L 655.605469 178.445312 L 655.605469 679.65625 L 154.394531 679.65625 Z M 154.394531 178.445312 " fill-opacity="1" fill-rule="nonzero"/></g></g><g fill="#ffffff" fill-opacity="1"><g transform="translate(283.690115, 559.740889)"><g><path d="M 115.703125 4.46875 C 94.515625 4.320312 75.75 -0.859375 59.40625 -11.078125 C 43.070312 -21.296875 30.875 -35.316406 22.8125 -53.140625 C 14.757812 -70.972656 11.628906 -90.628906 13.421875 -112.109375 L 14.09375 -121.0625 C 16.332031 -144.632812 23.195312 -166.265625 34.6875 -185.953125 C 46.175781 -205.648438 60.945312 -220.832031 79 -231.5 C 97.050781 -242.164062 117.039062 -247.203125 138.96875 -246.609375 C 170.144531 -246.015625 193.753906 -234.5625 209.796875 -212.25 C 225.835938 -189.945312 231.914062 -161.71875 228.03125 -127.5625 L 224.453125 -100.03125 L 76.09375 -100.03125 C 75.488281 -84.363281 79.289062 -71.832031 87.5 -62.4375 C 95.707031 -53.039062 106.894531 -48.191406 121.0625 -47.890625 C 144.039062 -47.296875 164.179688 -56.171875 181.484375 -74.515625 L 210.359375 -38.71875 C 201.253906 -24.988281 188.125 -14.28125 170.96875 -6.59375 C 153.8125 1.082031 135.390625 4.769531 115.703125 4.46875 Z M 135.84375 -194.46875 C 124.195312 -194.769531 113.859375 -191.113281 104.828125 -183.5 C 95.804688 -175.894531 87.71875 -162.691406 80.5625 -143.890625 L 167.390625 -143.890625 L 168.734375 -149.71875 C 169.628906 -155.675781 169.703125 -161.34375 168.953125 -166.71875 C 167.460938 -175.375 163.804688 -182.125 157.984375 -186.96875 C 152.171875 -191.820312 144.789062 -194.320312 135.84375 -194.46875 Z M 135.84375 -194.46875 "/></g></g></g></svg>