<svg width="199" height="223" viewBox="0 0 199 223" fill="none" xmlns="http://www.w3.org/2000/svg">
<g filter="url(#filter0_d_10_23)">
<path d="M13.651 27.6274H7.5014V208.394C7.5014 210.48 8.73132 211.871 10.5762 211.871H115.119V204.918H13.651V27.6274Z" fill="#00943E"/>
<path d="M25.9501 10.2459H121.269V38.0562C121.269 40.142 122.499 41.5325 124.343 41.5325H148.942V51.9613H155.091V38.0562C155.091 37.7086 155.091 37.3609 154.784 37.0133V36.6657C154.476 36.3181 154.476 35.9704 154.169 35.6228L126.496 4.33622C126.188 3.98859 125.881 3.98859 125.573 3.64096H125.266C124.958 3.64096 124.651 3.29333 124.343 3.29333H22.8753C21.0305 3.29333 19.8005 4.68385 19.8005 6.76962V194.489C19.8005 196.575 21.0305 197.965 22.8753 197.965H127.418V191.013H25.9501V10.2459ZM144.637 34.5799H127.418V15.1127L144.637 34.5799Z" fill="#00943E"/>
<path d="M84.3711 97.1532H78.2216V104.106H84.3711V97.1532Z" fill="#00943E"/>
<path d="M72.0721 97.1532H65.9225V104.106H72.0721V97.1532Z" fill="#00943E"/>
<path d="M59.7729 97.1532H53.6233V104.106H59.7729V97.1532Z" fill="#00943E"/>
<path d="M47.4737 97.1532H41.3241V104.106H47.4737V97.1532Z" fill="#00943E"/>
<path d="M96.6704 97.1532H90.5208V104.106H96.6704V97.1532Z" fill="#00943E"/>
<path d="M41.3241 20.6748H35.1745V27.6274H41.3241V20.6748Z" fill="#00943E"/>
<path d="M53.6232 20.6748H47.4736V27.6274H53.6232V20.6748Z" fill="#00943E"/>
<path d="M53.6232 34.5801H47.4736V41.5327H53.6232V34.5801Z" fill="#00943E"/>
<path d="M41.3241 34.5801H35.1745V41.5327H41.3241V34.5801Z" fill="#00943E"/>
<path d="M84.3712 20.6748H59.7728V27.6274H84.3712V20.6748Z" fill="#00943E"/>
<path d="M84.3712 34.5801H59.7728V41.5327H84.3712V34.5801Z" fill="#00943E"/>
<path d="M115.119 58.9141H35.1745V65.8666H115.119V58.9141Z" fill="#00943E"/>
<path d="M139.717 76.2954H35.1745V83.248H139.717V76.2954Z" fill="#00943E"/>
<path d="M139.717 118.011H35.1745V124.963H139.717V118.011Z" fill="#00943E"/>
<path d="M139.717 135.392H35.1745V142.345H139.717V135.392Z" fill="#00943E"/>
<path d="M102.82 152.774H35.1745V159.726H102.82V152.774Z" fill="#00943E"/>
<path d="M115.119 152.774H108.97V159.726H115.119V152.774Z" fill="#00943E"/>
<path d="M127.418 152.774H121.269V159.726H127.418V152.774Z" fill="#00943E"/>
<path d="M139.717 152.774H133.568V159.726H139.717V152.774Z" fill="#00943E"/>
<path d="M179.69 118.011C173.848 118.011 169.235 122.53 167.698 128.44H155.091V104.106H173.54C175.385 104.106 176.615 102.715 176.615 100.629V44.6613C181.842 43.2708 185.839 37.7087 185.839 31.1038C185.839 23.4559 180.305 17.1986 173.54 17.1986C166.776 17.1986 161.241 23.4559 161.241 31.1038C161.241 37.7087 165.238 42.9231 170.465 44.6613V97.1532H102.82V104.106H148.942V170.503C143.715 171.893 139.717 177.455 139.717 184.06C139.717 191.708 145.252 197.965 152.017 197.965C158.781 197.965 164.316 191.708 164.316 184.06C164.316 177.455 160.319 172.241 155.091 170.503V135.392H167.698C168.928 141.302 173.848 145.821 179.69 145.821C186.454 145.821 191.989 139.564 191.989 131.916C191.989 124.268 186.454 118.011 179.69 118.011ZM167.391 31.1038C167.391 27.2798 170.158 24.1512 173.54 24.1512C176.922 24.1512 179.69 27.2798 179.69 31.1038C179.69 34.9277 176.922 38.0563 173.54 38.0563C170.158 38.0563 167.391 34.9277 167.391 31.1038ZM158.166 184.06C158.166 187.884 155.399 191.013 152.017 191.013C148.634 191.013 145.867 187.884 145.867 184.06C145.867 180.236 148.634 177.108 152.017 177.108C155.399 177.108 158.166 180.236 158.166 184.06ZM179.69 138.869C176.307 138.869 173.54 135.74 173.54 131.916C173.54 128.092 176.307 124.963 179.69 124.963C183.072 124.963 185.839 128.092 185.839 131.916C185.839 135.74 183.072 138.869 179.69 138.869Z" fill="#00943E"/>
<path d="M72.072 170.155H35.1745V177.108H72.072V170.155Z" fill="#00943E"/>
</g>
<defs>
<filter id="filter0_d_10_23" x="0.501404" y="0.293335" width="198.488" height="222.577" filterUnits="userSpaceOnUse" color-interpolation-filters="sRGB">
<feFlood flood-opacity="0" result="BackgroundImageFix"/>
<feColorMatrix in="SourceAlpha" type="matrix" values="0 0 0 0 0 0 0 0 0 0 0 0 0 0 0 0 0 0 127 0" result="hardAlpha"/>
<feOffset dy="4"/>
<feGaussianBlur stdDeviation="3.5"/>
<feComposite in2="hardAlpha" operator="out"/>
<feColorMatrix type="matrix" values="0 0 0 0 0 0 0 0 0 0 0 0 0 0 0 0 0 0 0.2 0"/>
<feBlend mode="normal" in2="BackgroundImageFix" result="effect1_dropShadow_10_23"/>
<feBlend mode="normal" in="SourceGraphic" in2="effect1_dropShadow_10_23" result="shape"/>
</filter>
</defs>
</svg>
