<svg width="189" height="233" viewBox="0 0 189 233" fill="none" xmlns="http://www.w3.org/2000/svg">
<g filter="url(#filter0_d_10_132)">
<path d="M160.8 103.377V3.61426H27.2914V104.693L7.50415 113.565V221.162H181.022V113.68L160.8 103.377ZM33.8143 10.2618H154.277V128.626L94.2631 166.485L33.8143 128.352V10.2618ZM174.499 214.515H14.0275V117.903L27.2914 111.956V124.237L25.0532 122.825H17.7238V129.472H23.1973L94.2631 174.303L165.329 129.472H170.802V122.825H163.474L160.8 124.511V110.809L174.499 117.788V214.515H174.499Z" fill="#00943E"/>
<path d="M75.8586 167.954L23.1143 204.81H17.7239V211.457H25.1362L79.5474 173.436L75.8586 167.954Z" fill="#00943E"/>
<path d="M165.412 204.81L112.668 167.954L108.979 173.436L163.39 211.457H170.802V204.81H165.412Z" fill="#00943E"/>
<path d="M110.061 36.491C105.93 32.2063 100.782 30.0657 94.6221 30.0657C88.462 30.0657 83.1966 32.293 78.8256 36.7476C74.4542 41.2023 72.2685 46.5772 72.2685 52.873C72.2685 59.1687 74.345 64.4141 78.495 68.6032C82.645 72.7952 87.7986 74.8925 93.9579 74.8925C95.9856 74.8925 98.1446 74.488 100.433 73.6786C102.719 72.8696 104.602 71.8099 106.078 70.4935L103.808 66.4901C100.967 69.2707 97.6843 70.6635 93.9588 70.6635C89.1996 70.6635 85.2068 68.9707 81.9787 65.5881C78.7531 62.2055 77.1378 57.9671 77.1378 52.873C77.1378 47.7789 78.8535 43.4109 82.2851 39.7623C85.7167 36.1167 89.9397 34.2947 94.9565 34.2947C99.9709 34.2947 103.975 36.0338 106.964 39.5095C109.95 42.9877 111.445 47.3744 111.445 52.6754C111.445 55.119 111.066 57.1487 110.311 58.7642C109.553 60.3831 108.677 61.1891 107.683 61.1891C106.576 61.1891 106.021 60.2501 106.021 58.372V40.3831H99.107V42.6937L98.3856 41.9616C97.9428 41.4738 97.2061 40.9758 96.1724 40.4663C95.1388 39.9599 94.0501 39.7062 92.9072 39.7062C89.5152 39.7062 86.7745 40.9758 84.6918 43.512C82.6062 46.0482 81.5663 49.1683 81.5663 52.8721C81.5663 56.576 82.7183 59.628 85.0225 62.0346C87.3295 64.4408 90.0393 65.6429 93.1586 65.6429C96.275 65.6429 98.8455 64.3087 100.877 61.6395C101.319 62.9554 102.12 64.0457 103.284 64.9108C104.445 65.7759 105.727 66.2084 107.128 66.2084C109.859 66.2084 112.063 64.9575 113.742 62.4583C115.419 59.9594 116.259 56.6414 116.259 52.505C116.258 46.1167 114.191 40.7786 110.061 36.491ZM97.7477 57.4381C96.8078 58.7357 95.5253 59.3845 93.9037 59.3845C92.2788 59.3845 90.9996 58.7077 90.0569 57.3548C89.117 56.0019 88.6475 54.4141 88.6475 52.5913C88.6475 50.7684 89.1174 49.2367 90.0569 47.9943C90.9996 46.7527 92.2609 46.1349 93.8491 46.1349C95.4348 46.1349 96.7165 46.7527 97.6931 47.9943C98.6721 49.2358 99.1603 50.7965 99.1603 52.6745C99.1603 54.5564 98.6908 56.1443 97.7477 57.4381Z" fill="#00943E"/>
<path d="M144.275 20.8972H124.705V27.5448H144.275V20.8972Z" fill="#00943E"/>
<path d="M91.219 82.054H44.2518V88.7015H91.219V82.054Z" fill="#00943E"/>
<path d="M144.275 30.647H134.272V37.2945H144.275V30.647Z" fill="#00943E"/>
<path d="M144.275 41.283H137.751V47.9305H144.275V41.283Z" fill="#00943E"/>
<path d="M104.266 95.7917H44.2518V102.439H104.266V95.7917Z" fill="#00943E"/>
<path d="M144.275 95.7917H110.789V102.439H144.275V95.7917Z" fill="#00943E"/>
<path d="M144.275 109.53H44.2518V116.177H144.275V109.53Z" fill="#00943E"/>
<path d="M60.7772 122.825H44.2518V129.472H60.7772V122.825Z" fill="#00943E"/>
<path d="M114.268 122.825H67.7354V129.472H114.268V122.825Z" fill="#00943E"/>
<path d="M144.275 122.825H120.791V129.472H144.275V122.825Z" fill="#00943E"/>
<path d="M117.747 136.563H63.8213V143.211H117.747V136.563Z" fill="#00943E"/>
<path d="M104.265 149.857H84.2607V156.505H104.265V149.857Z" fill="#00943E"/>
<path d="M50.7751 20.8972H44.2518V27.5448H50.7751V20.8972Z" fill="#00943E"/>
<path d="M60.7774 20.8972H54.2541V27.5448H60.7774V20.8972Z" fill="#00943E"/>
<path d="M70.7795 20.8972H63.8213V27.5448H70.7795V20.8972Z" fill="#00943E"/>
</g>
<defs>
<filter id="filter0_d_10_132" x="0.50415" y="0.614258" width="187.518" height="231.548" filterUnits="userSpaceOnUse" color-interpolation-filters="sRGB">
<feFlood flood-opacity="0" result="BackgroundImageFix"/>
<feColorMatrix in="SourceAlpha" type="matrix" values="0 0 0 0 0 0 0 0 0 0 0 0 0 0 0 0 0 0 127 0" result="hardAlpha"/>
<feOffset dy="4"/>
<feGaussianBlur stdDeviation="3.5"/>
<feComposite in2="hardAlpha" operator="out"/>
<feColorMatrix type="matrix" values="0 0 0 0 0 0 0 0 0 0 0 0 0 0 0 0 0 0 0.21 0"/>
<feBlend mode="normal" in2="BackgroundImageFix" result="effect1_dropShadow_10_132"/>
<feBlend mode="normal" in="SourceGraphic" in2="effect1_dropShadow_10_132" result="shape"/>
</filter>
</defs>
</svg>
